<svg viewBox="0 0 24 24" xmlns="http://www.w3.org/2000/svg"><defs><linearGradient gradientUnits="userSpaceOnUse" id="a" x1="4.664" x2="19.336" y1="6.129" y2="20.8"><stop offset="0" stop-color="#ffffff" stop-opacity="0" class="stop-color-ffffff"></stop><stop offset="1" stop-color="#ffffff" stop-opacity=".1" class="stop-color-ffffff"></stop></linearGradient></defs><path d="M20.913 13a1 1 0 1 0 0 2c.01 0 .019-.006.029-.006a8.943 8.943 0 0 1-.146.898 2.849 2.849 0 0 1-.61-.315 3.25 3.25 0 0 0-3.698 0 2.259 2.259 0 0 1-2.63 0 3.058 3.058 0 0 0-1.85-.577 3.06 3.06 0 0 0-1.849.577A2.104 2.104 0 0 1 8.843 16a2.111 2.111 0 0 1-1.32-.423A3.07 3.07 0 0 0 5.671 15a3.068 3.068 0 0 0-1.852.577 2.859 2.859 0 0 1-.615.316 8.952 8.952 0 0 1-.146-.897c.008 0 .014.004.022.004a1 1 0 0 0 0-2c-.008 0-.014.004-.022.004a8.937 8.937 0 0 1 .146-.896 2.849 2.849 0 0 1 .61.315A3.057 3.057 0 0 0 5.66 13a3.062 3.062 0 0 0 1.85-.578A2.1 2.1 0 0 1 8.827 12a2.104 2.104 0 0 1 1.317.423A3.058 3.058 0 0 0 11.99 13a3.06 3.06 0 0 0 1.85-.577 2.265 2.265 0 0 1 2.636 0 3.26 3.26 0 0 0 3.704 0 2.859 2.859 0 0 1 .615-.316 8.944 8.944 0 0 1 .146.899c-.01 0-.019-.006-.029-.006Z" fill="#f9dbbd" class="fill-3d5afe"></path><path d="M21 14h-.087H21zM16 4.84V3a.5.5 0 0 0-.342-.474 11.808 11.808 0 0 0-2.274-.45 1.5 1.5 0 1 0-2.768 0 11.808 11.808 0 0 0-2.274.45A.5.5 0 0 0 8 3v1.84a10 10 0 1 0 8 0ZM12 2a.5.5 0 1 1 .5-.5.5.5 0 0 1-.5.5Z" fill="#000000" class="fill-000000"></path><path d="M20.913 13c-.552 0-.552 2 0 2 .01 0 .019-.006.029-.006a8.943 8.943 0 0 1-.146.898 2.849 2.849 0 0 1-.61-.315 3.25 3.25 0 0 0-3.698 0 2.259 2.259 0 0 1-2.63 0 3.058 3.058 0 0 0-1.85-.577 3.06 3.06 0 0 0-1.849.577A2.104 2.104 0 0 1 8.843 16a2.111 2.111 0 0 1-1.32-.423A3.07 3.07 0 0 0 5.671 15a3.068 3.068 0 0 0-1.852.577 2.859 2.859 0 0 1-.615.316 8.952 8.952 0 0 1-.146-.897c.008 0 .014.004.022.004.552 0 .552-2 0-2-.008 0-.014.004-.022.004a8.937 8.937 0 0 1 .146-.896 2.849 2.849 0 0 1 .61.315A3.057 3.057 0 0 0 5.66 13a3.062 3.062 0 0 0 1.85-.578A2.1 2.1 0 0 1 8.827 12a2.104 2.104 0 0 1 1.317.423A3.058 3.058 0 0 0 11.99 13a3.06 3.06 0 0 0 1.85-.577 2.265 2.265 0 0 1 2.636 0 3.26 3.26 0 0 0 3.704 0 2.859 2.859 0 0 1 .615-.316 8.944 8.944 0 0 1 .146.899c-.01 0-.019-.006-.029-.006Z" fill="#f9dbbd" class="fill-3d5afe"></path><path d="M3 14h.08H3z" fill="#000000" class="fill-000000"></path><path d="M9 3.377a12.111 12.111 0 0 1 6 0v1.084a9.987 9.987 0 0 0-6 0Z" fill="#7d0000" class="fill-e3f2fd"></path><path d="M9 4.461a9.997 9.997 0 0 1 1-.252v-.832A5.694 5.694 0 0 1 12 3a12.348 12.348 0 0 0-3 .377Z" fill="#ffffff" opacity=".2" class="fill-ffffff"></path><path d="M12 3a5.694 5.694 0 0 1 2 .377v.832a9.997 9.997 0 0 1 1 .252V3.377A12.348 12.348 0 0 0 12 3Z" opacity=".2" fill="#000000" class="fill-000000"></path><path d="M12 5a9.01 9.01 0 0 1 8.529 6.147 3.72 3.72 0 0 0-.882.43 2.268 2.268 0 0 1-2.637 0 3.257 3.257 0 0 0-3.702 0 2.259 2.259 0 0 1-2.631 0A3.062 3.062 0 0 0 8.827 11a3.058 3.058 0 0 0-1.85.577A2.104 2.104 0 0 1 5.662 12a2.095 2.095 0 0 1-1.312-.422 3.704 3.704 0 0 0-.878-.43A9.01 9.01 0 0 1 12 5ZM12 23a9.01 9.01 0 0 1-8.529-6.147 3.721 3.721 0 0 0 .882-.43A2.11 2.11 0 0 1 5.67 16a2.111 2.111 0 0 1 1.32.423A3.07 3.07 0 0 0 8.842 17a3.06 3.06 0 0 0 1.85-.577 2.259 2.259 0 0 1 2.63 0 3.251 3.251 0 0 0 3.7 0 2.256 2.256 0 0 1 2.628 0 3.704 3.704 0 0 0 .878.43A9.01 9.01 0 0 1 12 23Z" fill="#053d28" class="fill-03a9f4"></path><path d="M19.647 11.577a3.72 3.72 0 0 1 .882-.43 9.05 9.05 0 0 0-3.253-4.429 8.945 8.945 0 0 1 1.72 5.185 2.752 2.752 0 0 0 .651-.326ZM10 21a8.948 8.948 0 0 1-5.273-1.717 8.983 8.983 0 0 0 15.802-2.43 3.704 3.704 0 0 1-.878-.43A2.095 2.095 0 0 0 18.34 16a2.455 2.455 0 0 0-.297.023A8.992 8.992 0 0 1 10 21Z" opacity=".2" fill="#000000" class="fill-000000"></path><path d="M15.27 13a1 1 0 1 0 1 1 1.001 1.001 0 0 0-1-1Zm0 1v-.001l.5.001ZM8.724 13a1 1 0 1 0 1 1 1.001 1.001 0 0 0-1-1Zm0 1.001-.5-.001h.5ZM3.5 14H3a9.064 9.064 0 0 0 .057.989.99.99 0 0 0 0-1.977A9.065 9.065 0 0 0 3 14ZM19.913 14a1.001 1.001 0 0 0 1 1c.01 0 .019-.005.03-.005a8.59 8.59 0 0 0 0-1.989c-.01 0-.02-.006-.03-.006a1.001 1.001 0 0 0-1 1Z" fill="#7d0000" class="fill-e3f2fd"></path><path d="M21 14c.208-.225-.14-1.598-.204-1.893a2.859 2.859 0 0 0-.615.316 3.196 3.196 0 0 1-1.232.525 8.93 8.93 0 0 1-.476 2.063 3.1 3.1 0 0 1 1.714.566 2.849 2.849 0 0 0 .61.315c.062-.294.41-1.168.203-1.392a6.048 6.048 0 0 1 0-.5Z" opacity=".2" fill="#000000" class="fill-000000"></path><path d="M16 4.84V3a.5.5 0 0 0-.342-.474 11.808 11.808 0 0 0-2.274-.45 1.5 1.5 0 1 0-2.768 0 11.808 11.808 0 0 0-2.274.45A.5.5 0 0 0 8 3v1.84a10 10 0 1 0 8 0ZM12 2a.5.5 0 1 1 .5-.5.5.5 0 0 1-.5.5Z" fill="url(#a)" class="fillurl(-a)"></path></svg>